<?xml version="1.0" encoding="utf-8"?>
<!-- Generator: Adobe Illustrator 25.4.1, SVG Export Plug-In . SVG Version: 6.00 Build 0)  -->
<svg version="1.1" id="Layer_1" xmlns="http://www.w3.org/2000/svg" xmlns:xlink="http://www.w3.org/1999/xlink" x="0px" y="0px"
	 viewBox="0 0 460 400" style="enable-background:new 0 0 460 400;" xml:space="preserve">
<style type="text/css">
	.st0{fill:#FFFFFF;}
</style>
<g>
	<g>
		<path class="st0" d="M189.46,233.57c-19.91-15.8-34.48-13.92-39.65-19.21c-2.97-3.04-0.67-11.36,8.92-14.64
			c9.24-3.16,15.94-0.43,28.03,2.27c12.86,2.88,22.96,6.62,24.56,1.27c0,0,0.67-15.53-0.23-19.32c-1.52-6.37-16.95-48.84-21.47-68.6
			c-3.99-17.44,6.31-22.67,10.03-18.34c7.94,9.26,35.47,81.37,35.47,81.37l-3.63-20.89c0-7.5,19.48-3.8,21.83,1.4l5.59,19.48
			c0,0-2.23-12.82-2.23-18.54c0-3.19,14.88,0.26,18.71,5.52c2.62,3.6,7.31,13.02,7.31,13.02s-3.67-11.73-3.18-12.5
			c1.14-1.76,13.23,4.4,17.16,10.17c12.71,18.71,9.07,39.71,5.81,62.33c-2.33,16.22-11.07,27.51-15.84,32.62
			c-1.83,1.96-4.39,3.07-7.07,3.07h-49.76c-2.48,0-4.71-1.14-6.67-2.67C218.35,267.68,210.88,250.57,189.46,233.57z"/>
		<path class="st0" d="M250.18,99.13c0.26,0.08,0.51,0.17,0.76,0.25l0.11-0.28l1.09-2.72l5.79,11.44l-12.08,4.3l1.09-2.72l0.17-0.43
			c-0.2-0.1-0.41-0.2-0.62-0.3c-10.1-4.78-21.05-6.27-31.71-2.45l-2.59-7.25C225.48,94.22,236.64,94.7,250.18,99.13z"/>
		<path class="st0" d="M169.83,112.02c0.25-0.12,0.48-0.24,0.72-0.35l-0.12-0.28l-1.14-2.7l12.16,4.08l-5.57,11.55l-1.14-2.7
			l-0.18-0.42c-0.21,0.07-0.43,0.15-0.65,0.23c-10.55,3.7-19.38,10.34-24.28,20.54l-6.94-3.33
			C148.81,125.88,157.09,118.38,169.83,112.02z"/>
	</g>
</g>
</svg>
